HIERARCHY
ROOT pelvis
{
	OFFSET 0.000000 0.000000 0.000000
	CHANNELS 6 Xposition Yposition Zposition Zrotation Yrotation Xrotation
	JOINT left_hip
	{
		OFFSET 0.055779 -0.080629 -0.017705
		CHANNELS 3 Zrotation Yrotation Xrotation
		JOINT left_knee
		{
			OFFSET 0.039469 -0.359247 0.009008
			CHANNELS 3 Zrotation Yrotation Xrotation
			JOINT left_ankle
			{
				OFFSET -0.013809 -0.389899 -0.036404
				CHANNELS 3 Zrotation Yrotation Xrotation
				JOINT left_foot
				{
					OFFSET 0.037897 -0.056346 0.116500
					CHANNELS 3 Zrotation Yrotation Xrotation
					End Site
					{
						OFFSET 0.000000 0.000000 0.000000
					}
				}
			}
		}
	}
	JOINT right_hip
	{
		OFFSET -0.057787 -0.088871 -0.013401
		CHANNELS 3 Zrotation Yrotation Xrotation
		JOINT right_knee
		{
			OFFSET -0.039496 -0.356943 -0.002206
			CHANNELS 3 Zrotation Yrotation Xrotation
			JOINT right_ankle
			{
				OFFSET 0.017959 -0.383749 -0.033094
				CHANNELS 3 Zrotation Yrotation Xrotation
				JOINT right_foot
				{
					OFFSET -0.031235 -0.058281 0.124713
					CHANNELS 3 Zrotation Yrotation Xrotation
					End Site
					{
						OFFSET 0.000000 0.000000 0.000000
					}
				}
			}
		}
	}
	JOINT spine1
	{
		OFFSET 0.004196 0.122659 -0.034271
		CHANNELS 3 Zrotation Yrotation Xrotation
		JOINT spine2
		{
			OFFSET 0.005122 0.143143 0.029537
			CHANNELS 3 Zrotation Yrotation Xrotation
			JOINT spine3
			{
				OFFSET -0.001923 0.057757 0.004628
				CHANNELS 3 Zrotation Yrotation Xrotation
				JOINT neck
				{
					OFFSET -0.013781 0.203940 -0.035143
					CHANNELS 3 Zrotation Yrotation Xrotation
					JOINT head
					{
						OFFSET 0.009065 0.086539 0.049216
						CHANNELS 3 Zrotation Yrotation Xrotation
						End Site
						{
							OFFSET 0.000000 0.000000 0.000000
						}
					}
				}
				JOINT left_collar
				{
					OFFSET 0.070315 0.109742 -0.020357
					CHANNELS 3 Zrotation Yrotation Xrotation
					JOINT left_shoulder
					{
						OFFSET 0.122280 0.043464 -0.020451
						CHANNELS 3 Zrotation Yrotation Xrotation
						JOINT left_elbow
						{
							OFFSET 0.245347 -0.013316 -0.020298
							CHANNELS 3 Zrotation Yrotation Xrotation
							JOINT left_wrist
							{
								OFFSET 0.251466 0.010925 -0.008411
								CHANNELS 3 Zrotation Yrotation Xrotation
								End Site
								{
									OFFSET 0.000000 0.000000 0.000000
								}
							}
						}
					}
				}
				JOINT right_collar
				{
					OFFSET -0.083386 0.108780 -0.024575
					CHANNELS 3 Zrotation Yrotation Xrotation
					JOINT right_shoulder
					{
						OFFSET -0.112806 0.044731 -0.008805
						CHANNELS 3 Zrotation Yrotation Xrotation
						JOINT right_elbow
						{
							OFFSET -0.248827 -0.010357 -0.028458
							CHANNELS 3 Zrotation Yrotation Xrotation
							JOINT right_wrist
							{
								OFFSET -0.255561 0.006434 -0.006231
								CHANNELS 3 Zrotation Yrotation Xrotation
								End Site
								{
									OFFSET 0.000000 0.000000 0.000000
								}
							}
						}
					}
				}
			}
		}
	}
}
MOTION
Frames: 16
Frame Time: 0.033333
-0.183222 0.584041 2.436027 9.230900 13.195900 7.232400 5.400132 5.929865 16.402124 -1.329993 -2.125614 27.582994 -0.795968 33.111829 -25.841462 0.000000 0.000000 0.000000 -14.203830 -22.103610 -71.440407 0.462153 0.916232 72.915319 0.862683 12.268257 -3.773361 0.000000 0.000000 0.000000 -21.336385 -17.156801 10.326292 0.000000 0.000000 0.000000 12.304147 -4.417474 -8.091026 -20.890289 -19.060994 28.049200 44.055745 -33.033952 -32.546262 0.000000 0.000000 0.000000 -77.117149 -5.972471 32.085474 16.964718 -24.946464 -7.489260 -0.401832 -2.510942 18.181366 0.000000 0.000000 0.000000 62.560483 4.903223 43.940015 -20.745976 29.120228 -9.861087 0.098420 1.255004 8.967819
-0.183031 0.584081 2.435849 8.900200 13.101400 7.376500 5.651111 6.052469 16.102981 -1.335051 -2.127263 27.725251 -0.771830 33.114696 -26.008639 0.000000 0.000000 0.000000 -13.882846 -21.800669 -71.586118 0.463868 0.914088 72.747764 0.837381 11.964625 -3.730790 0.000000 0.000000 0.000000 -20.947605 -17.201537 10.112336 0.000000 0.000000 0.000000 12.349196 -4.407918 -8.071944 -20.782198 -19.113811 28.008984 43.991210 -33.121460 -32.537264 0.000000 0.000000 0.000000 -76.973298 -6.766109 32.471887 17.311098 -25.350102 -7.698533 -0.376989 -2.434074 17.605503 0.000000 0.000000 0.000000 62.562775 4.892936 43.579264 -20.073386 28.414829 -9.425749 0.102542 1.280842 9.154087
-0.181607 0.585248 2.435849 9.166000 13.074800 7.434700 5.506245 6.408210 16.297941 -1.321770 -2.119047 27.445948 -0.814171 32.783967 -25.855220 0.000000 0.000000 0.000000 -14.310406 -21.853418 -71.445180 0.470276 0.917783 72.684061 0.840470 12.040492 -3.722209 0.000000 0.000000 0.000000 -21.322805 -17.226103 10.093061 0.000000 0.000000 0.000000 12.476704 -4.413991 -8.091670 -20.875725 -19.131295 28.066791 44.057261 -33.216229 -32.438687 0.000000 0.000000 0.000000 -76.910213 -7.234672 32.651423 17.797195 -25.909382 -7.995090 -0.361052 -2.383309 17.226266 0.000000 0.000000 0.000000 62.477447 4.675154 43.421440 -19.714319 28.031756 -9.195676 0.104997 1.295982 9.263270
-0.180497 0.585688 2.435797 9.079100 13.132300 7.452800 5.268298 6.029804 16.234984 -1.324914 -2.120395 27.523041 -0.796863 33.163528 -25.888835 0.000000 0.000000 0.000000 -14.273215 -21.986506 -71.487965 0.466215 0.922239 72.694806 0.845966 12.084644 -3.749302 0.000000 0.000000 0.000000 -21.205972 -17.418217 10.195685 0.000000 0.000000 0.000000 12.468363 -4.464207 -8.147616 -20.855912 -19.183809 27.965165 44.013320 -33.327426 -32.355554 0.000000 0.000000 0.000000 -76.817467 -7.691472 32.635510 18.201536 -26.367918 -8.244213 -0.335116 -2.298061 16.591229 0.000000 0.000000 0.000000 62.466595 4.929608 43.299992 -19.420322 27.714789 -9.008492 0.110350 1.328377 9.496996
-0.179784 0.585647 2.435933 9.009700 13.007500 7.402700 5.219394 6.046225 16.195348 -1.329541 -2.122913 27.719461 -0.776701 33.256719 -26.091522 0.000000 0.000000 0.000000 -14.260441 -21.857053 -71.454675 0.464997 0.913914 72.632890 0.848122 12.097404 -3.637269 0.000000 0.000000 0.000000 -21.233350 -17.402173 10.217847 0.000000 0.000000 0.000000 12.532695 -4.457998 -8.128929 -20.738035 -19.202861 27.950628 43.984173 -33.283614 -32.565631 0.000000 0.000000 0.000000 -76.794698 -8.038692 32.547207 18.452769 -26.649858 -8.400143 -0.317796 -2.239152 16.153671 0.000000 0.000000 0.000000 62.357431 5.006145 43.450296 -19.510560 27.812324 -9.065726 0.107855 1.313383 9.388799
-0.179227 0.585189 2.436162 8.848500 12.985900 7.363900 5.302261 6.060756 16.283728 -1.327357 -2.122609 27.651195 -0.776345 33.325406 -25.970249 0.000000 0.000000 0.000000 -14.140514 -21.827767 -71.421165 0.465395 0.914500 72.658256 0.835751 11.999975 -3.706720 0.000000 0.000000 0.000000 -21.150439 -17.467707 10.158461 0.000000 0.000000 0.000000 12.566054 -4.469008 -8.141400 -20.860567 -19.180981 27.976250 43.976401 -33.305583 -32.458472 0.000000 0.000000 0.000000 -76.862114 -8.349837 32.457668 18.437655 -26.632927 -8.390738 -0.312313 -2.220147 16.012743 0.000000 0.000000 0.000000 62.276265 4.673604 43.189169 -19.993528 28.330030 -9.374470 0.114104 1.350621 9.657599
-0.178809 0.584626 2.436465 8.621100 12.845300 7.286700 5.479694 6.181129 16.321111 -1.332677 -2.123350 27.741589 -0.756648 33.364358 -26.029472 0.000000 0.000000 0.000000 -14.001118 -21.582906 -71.385947 0.467092 0.913941 72.640102 0.836300 11.988988 -3.520678 0.000000 0.000000 0.000000 -20.953330 -17.395206 10.122543 0.000000 0.000000 0.000000 12.472820 -4.457781 -8.055219 -20.703162 -19.275729 27.982302 44.085330 -33.396840 -32.697840 0.000000 0.000000 0.000000 -76.837778 -8.611146 32.508572 18.424091 -26.617729 -8.382249 -0.315691 -2.231891 16.099745 0.000000 0.000000 0.000000 62.278405 4.865978 42.936340 -20.366133 28.723820 -9.614539 0.116215 1.362966 9.746775
-0.178017 0.584230 2.436601 8.681700 12.744100 7.323700 5.277490 6.164571 16.352286 -1.329972 -2.123227 27.675929 -0.751312 33.488073 -26.000340 0.000000 0.000000 0.000000 -14.110999 -21.458341 -71.436820 0.468909 0.911816 72.458739 0.830372 11.943496 -3.354089 0.000000 0.000000 0.000000 -21.151454 -17.561211 10.115893 0.000000 0.000000 0.000000 12.592074 -4.498310 -8.048175 -20.714793 -19.251467 27.871130 43.934411 -33.377978 -32.571150 0.000000 0.000000 0.000000 -76.920883 -8.669082 32.471096 18.306135 -26.485594 -8.309030 -0.314035 -2.226141 16.057146 0.000000 0.000000 0.000000 62.136328 4.827542 43.019778 -20.998928 29.381637 -10.026210 0.116462 1.364402 9.757183
-0.177991 0.583979 2.436851 8.448700 12.640300 7.261300 5.434699 6.221373 16.400290 -1.331171 -2.125595 27.679478 -0.738627 33.593481 -26.012188 0.000000 0.000000 0.000000 -13.975661 -21.139562 -71.357675 0.470817 0.903945 72.340284 0.803905 11.690298 -3.379418 0.000000 0.000000 0.000000 -21.081046 -17.681285 10.153760 0.000000 0.000000 0.000000 12.652942 -4.537426 -7.947188 -20.690685 -19.267040 27.842930 44.079120 -33.339810 -32.683894 0.000000 0.000000 0.000000 -77.005581 -8.661547 32.367937 18.218551 -26.387088 -8.254697 -0.318168 -2.240437 16.163194 0.000000 0.000000 0.000000 62.050631 5.153751 43.000226 -21.450921 29.843046 -10.323131 0.117235 1.368891 9.789581
-0.177659 0.584133 2.436820 8.365800 12.640800 7.258100 5.485529 6.209148 16.187245 -1.346048 -2.129882 28.040380 -0.717331 33.682874 -26.153932 0.000000 0.000000 0.000000 -14.037377 -21.003046 -71.277361 0.470296 0.914500 72.440448 0.792137 11.523517 -3.493923 0.000000 0.000000 0.000000 -21.138839 -17.810616 10.219831 0.000000 0.000000 0.000000 12.723521 -4.566602 -8.009031 -20.671035 -19.299675 27.842831 43.906767 -33.470736 -32.598719 0.000000 0.000000 0.000000 -77.168479 -8.546348 32.334749 18.002097 -26.142488 -8.121054 -0.328412 -2.275459 16.423216 0.000000 0.000000 0.000000 61.921031 5.261428 43.040825 -21.922232 30.316867 -10.635272 0.115383 1.358112 9.711705
-0.177136 0.585347 2.437060 8.307100 12.636200 7.173500 5.486656 6.173109 16.224048 -1.352329 -2.131622 28.123989 -0.705392 33.719689 -26.215595 0.000000 0.000000 0.000000 -14.045714 -20.892202 -71.186371 0.470622 0.909504 72.394233 0.780095 11.404246 -3.440793 0.000000 0.000000 0.000000 -21.222151 -17.904737 10.325058 0.000000 0.000000 0.000000 12.713209 -4.608311 -7.926488 -20.669887 -19.313465 27.817201 43.908391 -33.512184 -32.543133 0.000000 0.000000 0.000000 -77.260841 -8.546427 32.222728 17.687800 -25.784133 -7.928049 -0.350149 -2.347893 16.962170 0.000000 0.000000 0.000000 61.869602 5.474291 43.011804 -22.323934 30.714686 -10.903302 0.116536 1.364833 9.760256
-0.177129 0.585147 2.437185 8.209100 12.574300 7.146500 5.539610 6.221089 16.358916 -1.342059 -2.129524 27.921068 -0.717665 33.686957 -26.183545 0.000000 0.000000 0.000000 -14.014301 -20.717776 -71.121731 0.476350 0.912759 72.379877 0.759865 11.243286 -3.486370 0.000000 0.000000 0.000000 -21.255787 -17.819222 10.296242 0.000000 0.000000 0.000000 12.711283 -4.589776 -7.879227 -20.700903 -19.337419 27.868649 43.908381 -33.593023 -32.533824 0.000000 0.000000 0.000000 -77.435336 -8.596907 32.177342 17.463802 -25.526756 -7.791380 -0.341988 -2.320981 16.761756 0.000000 0.000000 0.000000 61.728769 5.575178 43.129970 -22.600272 30.985432 -11.088750 0.112945 1.343798 9.608358
-0.175934 0.586178 2.437091 8.432100 12.685300 7.187000 5.237896 6.098990 16.392780 -1.331912 -2.123422 27.769715 -0.732734 33.627597 -26.142587 0.000000 0.000000 0.000000 -14.278092 -20.897535 -71.050818 0.481766 0.915811 72.338172 0.753186 11.227773 -3.295735 0.000000 0.000000 0.000000 -21.636246 -17.930105 10.459079 0.000000 0.000000 0.000000 12.806952 -4.620837 -7.972812 -20.696675 -19.271116 27.838091 43.747622 -33.509213 -32.401537 0.000000 0.000000 0.000000 -77.664899 -8.573989 31.887521 17.153584 -25.167109 -7.603250 -0.354114 -2.360837 17.058622 0.000000 0.000000 0.000000 61.590587 5.839494 43.355578 -22.655444 31.039120 -11.125812 0.109526 1.323445 9.461427
-0.176297 0.587022 2.436976 8.073400 12.705600 7.152600 5.693658 6.314139 16.374298 -1.322024 -2.119513 27.649534 -0.731104 33.386965 -26.131137 0.000000 0.000000 0.000000 -13.946392 -20.691069 -70.904776 0.484724 0.912912 72.119730 0.727850 11.008127 -3.284906 0.000000 0.000000 0.000000 -21.212329 -17.813630 10.432697 0.000000 0.000000 0.000000 12.626183 -4.599909 -7.882932 -20.721906 -19.304442 27.878564 44.123387 -33.415384 -32.767713 0.000000 0.000000 0.000000 -77.850627 -8.657591 31.602315 17.041255 -25.036127 -7.535358 -0.365120 -2.396389 17.323829 0.000000 0.000000 0.000000 61.472767 5.756195 43.314177 -22.885811 31.262309 -11.281128 0.111833 1.337211 9.560798
-0.176126 0.587098 2.436434 8.118000 12.667000 7.255200 5.503979 6.167517 16.198010 -1.339167 -2.117787 27.703848 -0.717145 33.519777 -26.199084 0.000000 0.000000 0.000000 -14.029585 -20.491157 -70.935503 0.489285 0.913905 71.982395 0.706439 10.793504 -3.164572 0.000000 0.000000 0.000000 -21.361908 -17.757459 10.362998 0.000000 0.000000 0.000000 12.692514 -4.564227 -7.966206 -20.835007 -19.269069 28.000532 44.070569 -33.427172 -32.735855 0.000000 0.000000 0.000000 -78.012463 -8.445207 31.714636 16.973678 -24.956932 -7.494672 -0.359717 -2.379011 17.194180 0.000000 0.000000 0.000000 61.341658 5.954150 43.566291 -22.695393 31.077917 -11.152718 0.106614 1.305852 9.334506
-0.175987 0.588003 2.435599 8.143500 12.871700 7.331900 5.499980 6.070559 16.058865 -1.322825 -2.113301 27.656420 -0.721632 33.386004 -26.167423 0.000000 0.000000 0.000000 -14.103112 -20.614910 -70.834972 0.490852 0.912524 71.824220 0.699759 10.687705 -3.079115 0.000000 0.000000 0.000000 -21.379978 -17.811819 10.471914 0.000000 0.000000 0.000000 12.642369 -4.585188 -8.040211 -20.756158 -19.257624 27.904525 43.966719 -33.383814 -32.687122 0.000000 0.000000 0.000000 -78.099948 -8.323284 31.922914 17.022278 -25.013834 -7.523902 -0.360618 -2.381914 17.215838 0.000000 0.000000 0.000000 61.260058 5.835624 43.575053 -22.750386 31.131285 -11.189730 0.107709 1.312500 9.382454
